<svg version="1.2" xmlns="http://www.w3.org/2000/svg" viewBox="0 0 850 850" width="850" height="850">
	<title>logo_este_es_el_bueno</title>
	<style>
		.s0 { fill: #000000 } 
	</style>
	<path id="Capa 3 copy 2" class="s0" d="m518.7 735.7c0 0-108.7-96.9-205.5-207-48.5-55.1-88.3-108.7-121.4-164.8-50.6-85.4-63.3-170.4-14.9-202.6 40.6-27 95.8 5 158 58.4 81.3 69.8 167.2 173.6 167.2 173.6 0 0 24.2-33 36.6-51.1 12-17.5 27.8-51.1 27.8-51.1 0 0-140.1-178.5-230.8-216.8-62.2-26.3-136.3-49-238.1 19.2-50.9 34.1-86.3 115.2-77 185.6 28 213.5 408.4 534.7 408.4 534.7l39.5-34.2z"/>
	<path id="Layer 4" class="s0" d="m302.5 229.2c0 0 26.5 19.1 41.5 33.8 22.4 22 46 51 46 51 0 0-52.6 51.7-73.4 73-16.4 16.8-73.6 88.2-73.6 88.2l-66-108.2c0 0 45.2-51.3 58.7-67.6 14.5-17.5 66.8-70.2 66.8-70.2z"/>
	<path id="Layer 3" class="s0" d="m528.1 204.9c0 0 20.9-12.2 44.8-16 26.1-4.1 52.4-3.1 52.4-3.1 0 0-12.7 97.1-88.8 205.3-32.7 46.6-79.2 96.1-79.2 96.1 0 0-18.1-15.7-54.1-55.7-23-25.5-44.4-46.4-44.4-46.4 0 0-19.3 20.1-37.3 39.9-17.5 19.2-30.8 41.3-30.8 41.3 0 0 68.6 77 124.7 131.7 29.6 28.7 122.6 118.1 122.6 118.1l41-39.1 38.5-39.8c0 0-27.1-23.1-40.2-36.7-16.2-16.8-30.3-33.4-30.3-33.4 0 0 78.4-82.1 117-142.1 63.6-98.9 77.3-199.5 75-195 0 0 24.7 16.1 40 31 23.8 23.3 48 53.5 48 53.5 0 0-4.7-97.8-51.7-149.5-24.4-26.8-61.2-58.8-96.8-72.1-145.6-54.1-238.3 21.6-238.3 21.6 0 0 18.2 17.4 41.2 41.1 21 21.5 46.7 49.3 46.7 49.3z"/>
	<path id="Layer 5" class="s0" d="m608.4 532.8c0 0 23.7-24.3 44.9-52.7 21.6-29 37.1-50.7 37.1-50.7l51.7 62.2-41.1 52.4-46 53.5z"/>
</svg>